<mxfile host="app.diagrams.net" modified="2023-10-28T15:35:21.986Z" agent="Mozilla/5.0 (Windows NT 10.0; Win64; x64) AppleWebKit/537.36 (KHTML, like Gecko) Chrome/118.0.0.0 Safari/537.36" etag="CzbwTZYhl5nc5Cb9-6Mw" version="22.0.8" type="device">
  <diagram name="Сторінка-1" id="bmzqBKX1jlfXvAgda7Bc">
    <mxGraphModel dx="1877" dy="1707" grid="1" gridSize="10" guides="1" tooltips="1" connect="1" arrows="1" fold="1" page="1" pageScale="1" pageWidth="827" pageHeight="1169" math="0" shadow="0">
      <root>
        <mxCell id="0" />
        <mxCell id="1" parent="0" />
        <mxCell id="7IlD-dD116DenXzIiaNw-1" value="Empolyee" style="rounded=0;whiteSpace=wrap;html=1;fillColor=#f8cecc;gradientColor=#ea6b66;strokeColor=#b85450;" vertex="1" parent="1">
          <mxGeometry x="155" y="60" width="120" height="60" as="geometry" />
        </mxCell>
        <mxCell id="7IlD-dD116DenXzIiaNw-2" value="department" style="rounded=0;whiteSpace=wrap;html=1;fillColor=#f8cecc;gradientColor=#ea6b66;strokeColor=#b85450;" vertex="1" parent="1">
          <mxGeometry x="530" y="55" width="120" height="60" as="geometry" />
        </mxCell>
        <mxCell id="7IlD-dD116DenXzIiaNw-3" value="product" style="rounded=0;whiteSpace=wrap;html=1;fillColor=#f8cecc;gradientColor=#ea6b66;strokeColor=#b85450;" vertex="1" parent="1">
          <mxGeometry x="314" y="460" width="120" height="60" as="geometry" />
        </mxCell>
        <mxCell id="7IlD-dD116DenXzIiaNw-4" value="Orders" style="rounded=0;whiteSpace=wrap;html=1;fillColor=#f8cecc;gradientColor=#ea6b66;strokeColor=#b85450;" vertex="1" parent="1">
          <mxGeometry x="520" y="240" width="120" height="60" as="geometry" />
        </mxCell>
        <mxCell id="7IlD-dD116DenXzIiaNw-5" value="customer" style="rounded=0;whiteSpace=wrap;html=1;fillColor=#f8cecc;gradientColor=#ea6b66;strokeColor=#b85450;" vertex="1" parent="1">
          <mxGeometry x="690" y="460" width="120" height="60" as="geometry" />
        </mxCell>
        <mxCell id="7IlD-dD116DenXzIiaNw-6" value="manages" style="rhombus;whiteSpace=wrap;html=1;fillColor=#dae8fc;gradientColor=#7ea6e0;strokeColor=#6c8ebf;" vertex="1" parent="1">
          <mxGeometry x="170" y="-30" width="80" height="50" as="geometry" />
        </mxCell>
        <mxCell id="7IlD-dD116DenXzIiaNw-65" style="edgeStyle=orthogonalEdgeStyle;rounded=0;orthogonalLoop=1;jettySize=auto;html=1;exitX=0;exitY=0.5;exitDx=0;exitDy=0;fillColor=#dae8fc;gradientColor=#7ea6e0;strokeColor=#6c8ebf;endArrow=ERzeroToMany;endFill=0;" edge="1" parent="1" source="7IlD-dD116DenXzIiaNw-7" target="7IlD-dD116DenXzIiaNw-1">
          <mxGeometry relative="1" as="geometry" />
        </mxCell>
        <mxCell id="7IlD-dD116DenXzIiaNw-7" value="works for" style="rhombus;whiteSpace=wrap;html=1;fillColor=#dae8fc;gradientColor=#7ea6e0;strokeColor=#6c8ebf;" vertex="1" parent="1">
          <mxGeometry x="354" y="65" width="80" height="50" as="geometry" />
        </mxCell>
        <mxCell id="7IlD-dD116DenXzIiaNw-59" style="edgeStyle=orthogonalEdgeStyle;rounded=0;orthogonalLoop=1;jettySize=auto;html=1;exitX=0;exitY=0.5;exitDx=0;exitDy=0;entryX=0.75;entryY=1;entryDx=0;entryDy=0;fillColor=#dae8fc;gradientColor=#7ea6e0;strokeColor=#6c8ebf;endArrow=ERmandOne;endFill=0;" edge="1" parent="1" source="7IlD-dD116DenXzIiaNw-8" target="7IlD-dD116DenXzIiaNw-1">
          <mxGeometry relative="1" as="geometry" />
        </mxCell>
        <mxCell id="7IlD-dD116DenXzIiaNw-8" value="places" style="rhombus;whiteSpace=wrap;html=1;fillColor=#dae8fc;gradientColor=#7ea6e0;strokeColor=#6c8ebf;" vertex="1" parent="1">
          <mxGeometry x="360" y="180" width="80" height="50" as="geometry" />
        </mxCell>
        <mxCell id="7IlD-dD116DenXzIiaNw-57" style="edgeStyle=orthogonalEdgeStyle;rounded=0;orthogonalLoop=1;jettySize=auto;html=1;fillColor=#dae8fc;gradientColor=#7ea6e0;strokeColor=#6c8ebf;endArrow=ERmandOne;endFill=0;" edge="1" parent="1" source="7IlD-dD116DenXzIiaNw-10" target="7IlD-dD116DenXzIiaNw-5">
          <mxGeometry relative="1" as="geometry" />
        </mxCell>
        <mxCell id="7IlD-dD116DenXzIiaNw-10" value="byus" style="rhombus;whiteSpace=wrap;html=1;fillColor=#dae8fc;gradientColor=#7ea6e0;strokeColor=#6c8ebf;" vertex="1" parent="1">
          <mxGeometry x="630" y="330" width="80" height="50" as="geometry" />
        </mxCell>
        <mxCell id="7IlD-dD116DenXzIiaNw-55" style="edgeStyle=orthogonalEdgeStyle;rounded=0;orthogonalLoop=1;jettySize=auto;html=1;exitX=1;exitY=0.5;exitDx=0;exitDy=0;entryX=0.25;entryY=1;entryDx=0;entryDy=0;fillColor=#dae8fc;gradientColor=#7ea6e0;strokeColor=#6c8ebf;endArrow=ERzeroToMany;endFill=0;" edge="1" parent="1" source="7IlD-dD116DenXzIiaNw-11" target="7IlD-dD116DenXzIiaNw-4">
          <mxGeometry relative="1" as="geometry" />
        </mxCell>
        <mxCell id="7IlD-dD116DenXzIiaNw-63" style="edgeStyle=orthogonalEdgeStyle;rounded=0;orthogonalLoop=1;jettySize=auto;html=1;exitX=0;exitY=0.5;exitDx=0;exitDy=0;entryX=0.5;entryY=0;entryDx=0;entryDy=0;fillColor=#dae8fc;gradientColor=#7ea6e0;strokeColor=#6c8ebf;endArrow=ERmandOne;endFill=0;" edge="1" parent="1" source="7IlD-dD116DenXzIiaNw-11" target="7IlD-dD116DenXzIiaNw-3">
          <mxGeometry relative="1" as="geometry" />
        </mxCell>
        <mxCell id="7IlD-dD116DenXzIiaNw-11" value="sells" style="rhombus;whiteSpace=wrap;html=1;fillColor=#dae8fc;gradientColor=#7ea6e0;strokeColor=#6c8ebf;" vertex="1" parent="1">
          <mxGeometry x="414" y="330" width="80" height="50" as="geometry" />
        </mxCell>
        <mxCell id="7IlD-dD116DenXzIiaNw-14" value="department_id" style="ellipse;whiteSpace=wrap;html=1;" vertex="1" parent="1">
          <mxGeometry x="470" y="-30" width="90" height="50" as="geometry" />
        </mxCell>
        <mxCell id="7IlD-dD116DenXzIiaNw-85" style="edgeStyle=orthogonalEdgeStyle;rounded=0;orthogonalLoop=1;jettySize=auto;html=1;exitX=0.5;exitY=0;exitDx=0;exitDy=0;" edge="1" parent="1" source="7IlD-dD116DenXzIiaNw-15">
          <mxGeometry relative="1" as="geometry">
            <mxPoint x="760" y="520" as="targetPoint" />
          </mxGeometry>
        </mxCell>
        <mxCell id="7IlD-dD116DenXzIiaNw-15" value="birth_date" style="ellipse;whiteSpace=wrap;html=1;" vertex="1" parent="1">
          <mxGeometry x="750" y="700" width="90" height="50" as="geometry" />
        </mxCell>
        <mxCell id="7IlD-dD116DenXzIiaNw-84" style="edgeStyle=orthogonalEdgeStyle;rounded=0;orthogonalLoop=1;jettySize=auto;html=1;exitX=1;exitY=0;exitDx=0;exitDy=0;entryX=0.5;entryY=1;entryDx=0;entryDy=0;" edge="1" parent="1" source="7IlD-dD116DenXzIiaNw-16" target="7IlD-dD116DenXzIiaNw-5">
          <mxGeometry relative="1" as="geometry" />
        </mxCell>
        <mxCell id="7IlD-dD116DenXzIiaNw-16" value="gender" style="ellipse;whiteSpace=wrap;html=1;" vertex="1" parent="1">
          <mxGeometry x="650" y="690" width="90" height="50" as="geometry" />
        </mxCell>
        <mxCell id="7IlD-dD116DenXzIiaNw-86" style="edgeStyle=orthogonalEdgeStyle;rounded=0;orthogonalLoop=1;jettySize=auto;html=1;exitX=0;exitY=0.5;exitDx=0;exitDy=0;entryX=0.75;entryY=1;entryDx=0;entryDy=0;" edge="1" parent="1" source="7IlD-dD116DenXzIiaNw-17" target="7IlD-dD116DenXzIiaNw-5">
          <mxGeometry relative="1" as="geometry" />
        </mxCell>
        <mxCell id="7IlD-dD116DenXzIiaNw-17" value="phone number" style="ellipse;whiteSpace=wrap;html=1;" vertex="1" parent="1">
          <mxGeometry x="810" y="640" width="90" height="50" as="geometry" />
        </mxCell>
        <mxCell id="7IlD-dD116DenXzIiaNw-18" value="last_name" style="ellipse;whiteSpace=wrap;html=1;" vertex="1" parent="1">
          <mxGeometry x="600" y="630" width="90" height="50" as="geometry" />
        </mxCell>
        <mxCell id="7IlD-dD116DenXzIiaNw-19" value="email" style="ellipse;whiteSpace=wrap;html=1;" vertex="1" parent="1">
          <mxGeometry x="810" y="580" width="90" height="50" as="geometry" />
        </mxCell>
        <mxCell id="7IlD-dD116DenXzIiaNw-20" value="first_name" style="ellipse;whiteSpace=wrap;html=1;" vertex="1" parent="1">
          <mxGeometry x="600" y="580" width="90" height="50" as="geometry" />
        </mxCell>
        <mxCell id="7IlD-dD116DenXzIiaNw-21" value="discount" style="ellipse;whiteSpace=wrap;html=1;dashed=1;" vertex="1" parent="1">
          <mxGeometry x="810" y="520" width="90" height="50" as="geometry" />
        </mxCell>
        <mxCell id="7IlD-dD116DenXzIiaNw-22" value="customer_id" style="ellipse;whiteSpace=wrap;html=1;" vertex="1" parent="1">
          <mxGeometry x="600" y="520" width="90" height="50" as="geometry" />
        </mxCell>
        <mxCell id="7IlD-dD116DenXzIiaNw-23" value="manufacture" style="ellipse;whiteSpace=wrap;html=1;" vertex="1" parent="1">
          <mxGeometry x="360" y="670" width="90" height="50" as="geometry" />
        </mxCell>
        <mxCell id="7IlD-dD116DenXzIiaNw-93" style="edgeStyle=orthogonalEdgeStyle;rounded=0;orthogonalLoop=1;jettySize=auto;html=1;exitX=1;exitY=0;exitDx=0;exitDy=0;entryX=0.5;entryY=1;entryDx=0;entryDy=0;" edge="1" parent="1" source="7IlD-dD116DenXzIiaNw-24" target="7IlD-dD116DenXzIiaNw-3">
          <mxGeometry relative="1" as="geometry" />
        </mxCell>
        <mxCell id="7IlD-dD116DenXzIiaNw-24" value="category" style="ellipse;whiteSpace=wrap;html=1;" vertex="1" parent="1">
          <mxGeometry x="264" y="670" width="90" height="50" as="geometry" />
        </mxCell>
        <mxCell id="7IlD-dD116DenXzIiaNw-94" style="edgeStyle=orthogonalEdgeStyle;rounded=0;orthogonalLoop=1;jettySize=auto;html=1;exitX=0;exitY=0.5;exitDx=0;exitDy=0;entryX=0.75;entryY=1;entryDx=0;entryDy=0;" edge="1" parent="1" source="7IlD-dD116DenXzIiaNw-25" target="7IlD-dD116DenXzIiaNw-3">
          <mxGeometry relative="1" as="geometry" />
        </mxCell>
        <mxCell id="7IlD-dD116DenXzIiaNw-25" value="product_type" style="ellipse;whiteSpace=wrap;html=1;" vertex="1" parent="1">
          <mxGeometry x="440" y="620" width="90" height="50" as="geometry" />
        </mxCell>
        <mxCell id="7IlD-dD116DenXzIiaNw-26" value="amount" style="ellipse;whiteSpace=wrap;html=1;" vertex="1" parent="1">
          <mxGeometry x="450" y="570" width="90" height="50" as="geometry" />
        </mxCell>
        <mxCell id="7IlD-dD116DenXzIiaNw-96" style="edgeStyle=orthogonalEdgeStyle;rounded=0;orthogonalLoop=1;jettySize=auto;html=1;exitX=0;exitY=0.5;exitDx=0;exitDy=0;" edge="1" parent="1" source="7IlD-dD116DenXzIiaNw-27">
          <mxGeometry relative="1" as="geometry">
            <mxPoint x="430" y="520" as="targetPoint" />
          </mxGeometry>
        </mxCell>
        <mxCell id="7IlD-dD116DenXzIiaNw-27" value="price" style="ellipse;whiteSpace=wrap;html=1;" vertex="1" parent="1">
          <mxGeometry x="450" y="520" width="90" height="50" as="geometry" />
        </mxCell>
        <mxCell id="7IlD-dD116DenXzIiaNw-28" value="product_description" style="ellipse;whiteSpace=wrap;html=1;" vertex="1" parent="1">
          <mxGeometry x="170" y="630" width="110" height="50" as="geometry" />
        </mxCell>
        <mxCell id="7IlD-dD116DenXzIiaNw-29" value="product_name" style="ellipse;whiteSpace=wrap;html=1;" vertex="1" parent="1">
          <mxGeometry x="190" y="570" width="90" height="50" as="geometry" />
        </mxCell>
        <mxCell id="7IlD-dD116DenXzIiaNw-30" value="product_id" style="ellipse;whiteSpace=wrap;html=1;" vertex="1" parent="1">
          <mxGeometry x="200" y="510" width="90" height="50" as="geometry" />
        </mxCell>
        <mxCell id="7IlD-dD116DenXzIiaNw-70" style="edgeStyle=orthogonalEdgeStyle;rounded=0;orthogonalLoop=1;jettySize=auto;html=1;exitX=0;exitY=0.5;exitDx=0;exitDy=0;entryX=1;entryY=0.25;entryDx=0;entryDy=0;" edge="1" parent="1" source="7IlD-dD116DenXzIiaNw-32" target="7IlD-dD116DenXzIiaNw-2">
          <mxGeometry relative="1" as="geometry" />
        </mxCell>
        <mxCell id="7IlD-dD116DenXzIiaNw-32" value="building_no" style="ellipse;whiteSpace=wrap;html=1;dashed=1;" vertex="1" parent="1">
          <mxGeometry x="680" y="10" width="90" height="50" as="geometry" />
        </mxCell>
        <mxCell id="7IlD-dD116DenXzIiaNw-33" value="street" style="ellipse;whiteSpace=wrap;html=1;" vertex="1" parent="1">
          <mxGeometry x="670" y="-40" width="90" height="50" as="geometry" />
        </mxCell>
        <mxCell id="7IlD-dD116DenXzIiaNw-34" value="city" style="ellipse;whiteSpace=wrap;html=1;" vertex="1" parent="1">
          <mxGeometry x="610" y="-80" width="90" height="50" as="geometry" />
        </mxCell>
        <mxCell id="7IlD-dD116DenXzIiaNw-35" value="departmen_name" style="ellipse;whiteSpace=wrap;html=1;" vertex="1" parent="1">
          <mxGeometry x="520" y="-80" width="90" height="50" as="geometry" />
        </mxCell>
        <mxCell id="7IlD-dD116DenXzIiaNw-78" style="edgeStyle=orthogonalEdgeStyle;rounded=0;orthogonalLoop=1;jettySize=auto;html=1;" edge="1" parent="1" source="7IlD-dD116DenXzIiaNw-36">
          <mxGeometry relative="1" as="geometry">
            <mxPoint x="640" y="290" as="targetPoint" />
          </mxGeometry>
        </mxCell>
        <mxCell id="7IlD-dD116DenXzIiaNw-36" value="transaction_type" style="ellipse;whiteSpace=wrap;html=1;" vertex="1" parent="1">
          <mxGeometry x="840" y="240" width="90" height="50" as="geometry" />
        </mxCell>
        <mxCell id="7IlD-dD116DenXzIiaNw-77" style="edgeStyle=orthogonalEdgeStyle;rounded=0;orthogonalLoop=1;jettySize=auto;html=1;exitX=0;exitY=1;exitDx=0;exitDy=0;entryX=1;entryY=0.75;entryDx=0;entryDy=0;" edge="1" parent="1" source="7IlD-dD116DenXzIiaNw-37" target="7IlD-dD116DenXzIiaNw-4">
          <mxGeometry relative="1" as="geometry" />
        </mxCell>
        <mxCell id="7IlD-dD116DenXzIiaNw-37" value="customer_id" style="ellipse;whiteSpace=wrap;html=1;" vertex="1" parent="1">
          <mxGeometry x="820" y="190" width="90" height="50" as="geometry" />
        </mxCell>
        <mxCell id="7IlD-dD116DenXzIiaNw-38" value="transaction_moment" style="ellipse;whiteSpace=wrap;html=1;" vertex="1" parent="1">
          <mxGeometry x="810" y="290" width="110" height="60" as="geometry" />
        </mxCell>
        <mxCell id="7IlD-dD116DenXzIiaNw-80" style="edgeStyle=orthogonalEdgeStyle;rounded=0;orthogonalLoop=1;jettySize=auto;html=1;exitX=0;exitY=0;exitDx=0;exitDy=0;entryX=1;entryY=0.75;entryDx=0;entryDy=0;" edge="1" parent="1" source="7IlD-dD116DenXzIiaNw-39" target="7IlD-dD116DenXzIiaNw-4">
          <mxGeometry relative="1" as="geometry" />
        </mxCell>
        <mxCell id="7IlD-dD116DenXzIiaNw-39" value="amount" style="ellipse;whiteSpace=wrap;html=1;" vertex="1" parent="1">
          <mxGeometry x="740" y="330" width="90" height="50" as="geometry" />
        </mxCell>
        <mxCell id="7IlD-dD116DenXzIiaNw-76" style="edgeStyle=orthogonalEdgeStyle;rounded=0;orthogonalLoop=1;jettySize=auto;html=1;exitX=0;exitY=1;exitDx=0;exitDy=0;entryX=1;entryY=0.5;entryDx=0;entryDy=0;" edge="1" parent="1" source="7IlD-dD116DenXzIiaNw-40" target="7IlD-dD116DenXzIiaNw-4">
          <mxGeometry relative="1" as="geometry" />
        </mxCell>
        <mxCell id="7IlD-dD116DenXzIiaNw-40" value="product_id" style="ellipse;whiteSpace=wrap;html=1;" vertex="1" parent="1">
          <mxGeometry x="740" y="160" width="90" height="50" as="geometry" />
        </mxCell>
        <mxCell id="7IlD-dD116DenXzIiaNw-75" style="edgeStyle=orthogonalEdgeStyle;rounded=0;orthogonalLoop=1;jettySize=auto;html=1;exitX=0.5;exitY=1;exitDx=0;exitDy=0;entryX=1;entryY=0.25;entryDx=0;entryDy=0;" edge="1" parent="1" source="7IlD-dD116DenXzIiaNw-41" target="7IlD-dD116DenXzIiaNw-4">
          <mxGeometry relative="1" as="geometry" />
        </mxCell>
        <mxCell id="7IlD-dD116DenXzIiaNw-41" value="employee_id" style="ellipse;whiteSpace=wrap;html=1;" vertex="1" parent="1">
          <mxGeometry x="650" y="150" width="90" height="50" as="geometry" />
        </mxCell>
        <mxCell id="7IlD-dD116DenXzIiaNw-72" style="edgeStyle=orthogonalEdgeStyle;rounded=0;orthogonalLoop=1;jettySize=auto;html=1;exitX=0.5;exitY=1;exitDx=0;exitDy=0;entryX=0.75;entryY=0;entryDx=0;entryDy=0;" edge="1" parent="1" source="7IlD-dD116DenXzIiaNw-42" target="7IlD-dD116DenXzIiaNw-4">
          <mxGeometry relative="1" as="geometry" />
        </mxCell>
        <mxCell id="7IlD-dD116DenXzIiaNw-42" value="orders_id" style="ellipse;whiteSpace=wrap;html=1;" vertex="1" parent="1">
          <mxGeometry x="560" y="170" width="90" height="50" as="geometry" />
        </mxCell>
        <mxCell id="7IlD-dD116DenXzIiaNw-103" style="edgeStyle=orthogonalEdgeStyle;rounded=0;orthogonalLoop=1;jettySize=auto;html=1;exitX=0.5;exitY=0;exitDx=0;exitDy=0;" edge="1" parent="1" source="7IlD-dD116DenXzIiaNw-43" target="7IlD-dD116DenXzIiaNw-1">
          <mxGeometry relative="1" as="geometry" />
        </mxCell>
        <mxCell id="7IlD-dD116DenXzIiaNw-43" value="binus" style="ellipse;whiteSpace=wrap;html=1;" vertex="1" parent="1">
          <mxGeometry x="150" y="180" width="90" height="50" as="geometry" />
        </mxCell>
        <mxCell id="7IlD-dD116DenXzIiaNw-44" value="employee_id" style="ellipse;whiteSpace=wrap;html=1;" vertex="1" parent="1">
          <mxGeometry x="60" y="-40" width="90" height="50" as="geometry" />
        </mxCell>
        <mxCell id="7IlD-dD116DenXzIiaNw-105" style="edgeStyle=orthogonalEdgeStyle;rounded=0;orthogonalLoop=1;jettySize=auto;html=1;exitX=0;exitY=0;exitDx=0;exitDy=0;entryX=0.25;entryY=1;entryDx=0;entryDy=0;" edge="1" parent="1" source="7IlD-dD116DenXzIiaNw-45" target="7IlD-dD116DenXzIiaNw-1">
          <mxGeometry relative="1" as="geometry" />
        </mxCell>
        <mxCell id="7IlD-dD116DenXzIiaNw-45" value="salary" style="ellipse;whiteSpace=wrap;html=1;" vertex="1" parent="1">
          <mxGeometry x="110" y="230" width="90" height="50" as="geometry" />
        </mxCell>
        <mxCell id="7IlD-dD116DenXzIiaNw-46" value="phone_number" style="ellipse;whiteSpace=wrap;html=1;" vertex="1" parent="1">
          <mxGeometry x="50" y="270" width="90" height="50" as="geometry" />
        </mxCell>
        <mxCell id="7IlD-dD116DenXzIiaNw-106" style="edgeStyle=orthogonalEdgeStyle;rounded=0;orthogonalLoop=1;jettySize=auto;html=1;exitX=1;exitY=0;exitDx=0;exitDy=0;entryX=0;entryY=0.5;entryDx=0;entryDy=0;" edge="1" parent="1" source="7IlD-dD116DenXzIiaNw-47" target="7IlD-dD116DenXzIiaNw-1">
          <mxGeometry relative="1" as="geometry" />
        </mxCell>
        <mxCell id="7IlD-dD116DenXzIiaNw-47" value="email" style="ellipse;whiteSpace=wrap;html=1;" vertex="1" parent="1">
          <mxGeometry x="-30" y="250" width="90" height="50" as="geometry" />
        </mxCell>
        <mxCell id="7IlD-dD116DenXzIiaNw-48" value="manager_id" style="ellipse;whiteSpace=wrap;html=1;" vertex="1" parent="1">
          <mxGeometry x="-70" y="210" width="90" height="50" as="geometry" />
        </mxCell>
        <mxCell id="7IlD-dD116DenXzIiaNw-102" style="edgeStyle=orthogonalEdgeStyle;rounded=0;orthogonalLoop=1;jettySize=auto;html=1;entryX=0;entryY=0.75;entryDx=0;entryDy=0;" edge="1" parent="1" source="7IlD-dD116DenXzIiaNw-49" target="7IlD-dD116DenXzIiaNw-1">
          <mxGeometry relative="1" as="geometry" />
        </mxCell>
        <mxCell id="7IlD-dD116DenXzIiaNw-49" value="employee_date" style="ellipse;whiteSpace=wrap;html=1;" vertex="1" parent="1">
          <mxGeometry x="-90" y="170" width="90" height="50" as="geometry" />
        </mxCell>
        <mxCell id="7IlD-dD116DenXzIiaNw-101" style="edgeStyle=orthogonalEdgeStyle;rounded=0;orthogonalLoop=1;jettySize=auto;html=1;exitX=1;exitY=0.5;exitDx=0;exitDy=0;entryX=0;entryY=0.5;entryDx=0;entryDy=0;" edge="1" parent="1" source="7IlD-dD116DenXzIiaNw-50" target="7IlD-dD116DenXzIiaNw-1">
          <mxGeometry relative="1" as="geometry" />
        </mxCell>
        <mxCell id="7IlD-dD116DenXzIiaNw-50" value="position" style="ellipse;whiteSpace=wrap;html=1;" vertex="1" parent="1">
          <mxGeometry x="-90" y="120" width="90" height="50" as="geometry" />
        </mxCell>
        <mxCell id="7IlD-dD116DenXzIiaNw-100" style="edgeStyle=orthogonalEdgeStyle;rounded=0;orthogonalLoop=1;jettySize=auto;html=1;entryX=0;entryY=0.75;entryDx=0;entryDy=0;" edge="1" parent="1" source="7IlD-dD116DenXzIiaNw-51" target="7IlD-dD116DenXzIiaNw-1">
          <mxGeometry relative="1" as="geometry" />
        </mxCell>
        <mxCell id="7IlD-dD116DenXzIiaNw-51" value="last_name" style="ellipse;whiteSpace=wrap;html=1;" vertex="1" parent="1">
          <mxGeometry x="-80" y="70" width="90" height="50" as="geometry" />
        </mxCell>
        <mxCell id="7IlD-dD116DenXzIiaNw-99" style="edgeStyle=orthogonalEdgeStyle;rounded=0;orthogonalLoop=1;jettySize=auto;html=1;exitX=1;exitY=0.5;exitDx=0;exitDy=0;entryX=0;entryY=0.25;entryDx=0;entryDy=0;" edge="1" parent="1" source="7IlD-dD116DenXzIiaNw-52" target="7IlD-dD116DenXzIiaNw-1">
          <mxGeometry relative="1" as="geometry" />
        </mxCell>
        <mxCell id="7IlD-dD116DenXzIiaNw-52" value="first_name" style="ellipse;whiteSpace=wrap;html=1;" vertex="1" parent="1">
          <mxGeometry x="-70" y="20" width="90" height="50" as="geometry" />
        </mxCell>
        <mxCell id="7IlD-dD116DenXzIiaNw-98" style="edgeStyle=orthogonalEdgeStyle;rounded=0;orthogonalLoop=1;jettySize=auto;html=1;exitX=1;exitY=1;exitDx=0;exitDy=0;entryX=0;entryY=0.5;entryDx=0;entryDy=0;" edge="1" parent="1" source="7IlD-dD116DenXzIiaNw-53" target="7IlD-dD116DenXzIiaNw-1">
          <mxGeometry relative="1" as="geometry" />
        </mxCell>
        <mxCell id="7IlD-dD116DenXzIiaNw-53" value="user_name" style="ellipse;whiteSpace=wrap;html=1;" vertex="1" parent="1">
          <mxGeometry x="-10" y="-10" width="90" height="50" as="geometry" />
        </mxCell>
        <mxCell id="7IlD-dD116DenXzIiaNw-56" style="edgeStyle=orthogonalEdgeStyle;rounded=0;orthogonalLoop=1;jettySize=auto;html=1;exitX=0;exitY=0.5;exitDx=0;exitDy=0;entryX=0.585;entryY=1.03;entryDx=0;entryDy=0;entryPerimeter=0;fillColor=#dae8fc;gradientColor=#7ea6e0;strokeColor=#6c8ebf;endArrow=ERoneToMany;endFill=0;" edge="1" parent="1" source="7IlD-dD116DenXzIiaNw-10" target="7IlD-dD116DenXzIiaNw-4">
          <mxGeometry relative="1" as="geometry" />
        </mxCell>
        <mxCell id="7IlD-dD116DenXzIiaNw-58" style="edgeStyle=orthogonalEdgeStyle;rounded=0;orthogonalLoop=1;jettySize=auto;html=1;entryX=0.325;entryY=-0.037;entryDx=0;entryDy=0;entryPerimeter=0;fillColor=#dae8fc;gradientColor=#7ea6e0;strokeColor=#6c8ebf;endArrow=ERzeroToMany;endFill=0;" edge="1" parent="1" source="7IlD-dD116DenXzIiaNw-8" target="7IlD-dD116DenXzIiaNw-4">
          <mxGeometry relative="1" as="geometry" />
        </mxCell>
        <mxCell id="7IlD-dD116DenXzIiaNw-61" style="edgeStyle=orthogonalEdgeStyle;rounded=0;orthogonalLoop=1;jettySize=auto;html=1;exitX=0;exitY=0.5;exitDx=0;exitDy=0;entryX=0.14;entryY=-0.037;entryDx=0;entryDy=0;entryPerimeter=0;endArrow=ERzeroToMany;endFill=0;fillColor=#dae8fc;gradientColor=#7ea6e0;strokeColor=#6c8ebf;" edge="1" parent="1" source="7IlD-dD116DenXzIiaNw-6" target="7IlD-dD116DenXzIiaNw-1">
          <mxGeometry relative="1" as="geometry" />
        </mxCell>
        <mxCell id="7IlD-dD116DenXzIiaNw-62" style="edgeStyle=orthogonalEdgeStyle;rounded=0;orthogonalLoop=1;jettySize=auto;html=1;exitX=1;exitY=0.5;exitDx=0;exitDy=0;entryX=0.867;entryY=-0.037;entryDx=0;entryDy=0;entryPerimeter=0;endArrow=ERzeroToOne;endFill=0;fillColor=#dae8fc;gradientColor=#7ea6e0;strokeColor=#6c8ebf;" edge="1" parent="1" source="7IlD-dD116DenXzIiaNw-6" target="7IlD-dD116DenXzIiaNw-1">
          <mxGeometry relative="1" as="geometry" />
        </mxCell>
        <mxCell id="7IlD-dD116DenXzIiaNw-64" style="edgeStyle=orthogonalEdgeStyle;rounded=0;orthogonalLoop=1;jettySize=auto;html=1;exitX=1;exitY=0.5;exitDx=0;exitDy=0;fillColor=#dae8fc;gradientColor=#7ea6e0;strokeColor=#6c8ebf;endArrow=ERzeroToOne;endFill=0;" edge="1" parent="1" source="7IlD-dD116DenXzIiaNw-7">
          <mxGeometry relative="1" as="geometry">
            <mxPoint x="530" y="90" as="targetPoint" />
          </mxGeometry>
        </mxCell>
        <mxCell id="7IlD-dD116DenXzIiaNw-66" style="edgeStyle=orthogonalEdgeStyle;rounded=0;orthogonalLoop=1;jettySize=auto;html=1;exitX=1;exitY=1;exitDx=0;exitDy=0;entryX=0.135;entryY=0.033;entryDx=0;entryDy=0;entryPerimeter=0;" edge="1" parent="1" source="7IlD-dD116DenXzIiaNw-14" target="7IlD-dD116DenXzIiaNw-2">
          <mxGeometry relative="1" as="geometry" />
        </mxCell>
        <mxCell id="7IlD-dD116DenXzIiaNw-67" style="edgeStyle=orthogonalEdgeStyle;rounded=0;orthogonalLoop=1;jettySize=auto;html=1;exitX=1;exitY=1;exitDx=0;exitDy=0;entryX=0.348;entryY=0.02;entryDx=0;entryDy=0;entryPerimeter=0;" edge="1" parent="1" source="7IlD-dD116DenXzIiaNw-35" target="7IlD-dD116DenXzIiaNw-2">
          <mxGeometry relative="1" as="geometry" />
        </mxCell>
        <mxCell id="7IlD-dD116DenXzIiaNw-69" style="edgeStyle=orthogonalEdgeStyle;rounded=0;orthogonalLoop=1;jettySize=auto;html=1;exitX=0;exitY=0.5;exitDx=0;exitDy=0;entryX=0.902;entryY=0.033;entryDx=0;entryDy=0;entryPerimeter=0;" edge="1" parent="1" source="7IlD-dD116DenXzIiaNw-33" target="7IlD-dD116DenXzIiaNw-2">
          <mxGeometry relative="1" as="geometry" />
        </mxCell>
        <mxCell id="7IlD-dD116DenXzIiaNw-71" style="edgeStyle=orthogonalEdgeStyle;rounded=0;orthogonalLoop=1;jettySize=auto;html=1;exitX=0;exitY=1;exitDx=0;exitDy=0;entryX=0.642;entryY=0.02;entryDx=0;entryDy=0;entryPerimeter=0;" edge="1" parent="1" source="7IlD-dD116DenXzIiaNw-34" target="7IlD-dD116DenXzIiaNw-2">
          <mxGeometry relative="1" as="geometry" />
        </mxCell>
        <mxCell id="7IlD-dD116DenXzIiaNw-79" style="edgeStyle=orthogonalEdgeStyle;rounded=0;orthogonalLoop=1;jettySize=auto;html=1;exitX=0;exitY=0;exitDx=0;exitDy=0;entryX=0.932;entryY=1.017;entryDx=0;entryDy=0;entryPerimeter=0;" edge="1" parent="1" source="7IlD-dD116DenXzIiaNw-38" target="7IlD-dD116DenXzIiaNw-4">
          <mxGeometry relative="1" as="geometry" />
        </mxCell>
        <mxCell id="7IlD-dD116DenXzIiaNw-81" style="edgeStyle=orthogonalEdgeStyle;rounded=0;orthogonalLoop=1;jettySize=auto;html=1;exitX=1;exitY=0;exitDx=0;exitDy=0;entryX=0.122;entryY=1.017;entryDx=0;entryDy=0;entryPerimeter=0;" edge="1" parent="1" source="7IlD-dD116DenXzIiaNw-22" target="7IlD-dD116DenXzIiaNw-5">
          <mxGeometry relative="1" as="geometry" />
        </mxCell>
        <mxCell id="7IlD-dD116DenXzIiaNw-82" style="edgeStyle=orthogonalEdgeStyle;rounded=0;orthogonalLoop=1;jettySize=auto;html=1;exitX=1;exitY=0.5;exitDx=0;exitDy=0;entryX=0.195;entryY=1.017;entryDx=0;entryDy=0;entryPerimeter=0;" edge="1" parent="1" source="7IlD-dD116DenXzIiaNw-20" target="7IlD-dD116DenXzIiaNw-5">
          <mxGeometry relative="1" as="geometry" />
        </mxCell>
        <mxCell id="7IlD-dD116DenXzIiaNw-83" style="edgeStyle=orthogonalEdgeStyle;rounded=0;orthogonalLoop=1;jettySize=auto;html=1;exitX=1;exitY=0.5;exitDx=0;exitDy=0;entryX=0.315;entryY=1.057;entryDx=0;entryDy=0;entryPerimeter=0;" edge="1" parent="1" source="7IlD-dD116DenXzIiaNw-18" target="7IlD-dD116DenXzIiaNw-5">
          <mxGeometry relative="1" as="geometry" />
        </mxCell>
        <mxCell id="7IlD-dD116DenXzIiaNw-87" style="edgeStyle=orthogonalEdgeStyle;rounded=0;orthogonalLoop=1;jettySize=auto;html=1;exitX=0;exitY=0.5;exitDx=0;exitDy=0;entryX=0.855;entryY=0.99;entryDx=0;entryDy=0;entryPerimeter=0;" edge="1" parent="1" source="7IlD-dD116DenXzIiaNw-19" target="7IlD-dD116DenXzIiaNw-5">
          <mxGeometry relative="1" as="geometry" />
        </mxCell>
        <mxCell id="7IlD-dD116DenXzIiaNw-88" style="edgeStyle=orthogonalEdgeStyle;rounded=0;orthogonalLoop=1;jettySize=auto;html=1;exitX=0;exitY=0.5;exitDx=0;exitDy=0;entryX=0.648;entryY=0.99;entryDx=0;entryDy=0;entryPerimeter=0;" edge="1" parent="1" source="7IlD-dD116DenXzIiaNw-21" target="7IlD-dD116DenXzIiaNw-5">
          <mxGeometry relative="1" as="geometry" />
        </mxCell>
        <mxCell id="7IlD-dD116DenXzIiaNw-89" style="edgeStyle=orthogonalEdgeStyle;rounded=0;orthogonalLoop=1;jettySize=auto;html=1;entryX=0.133;entryY=1;entryDx=0;entryDy=0;entryPerimeter=0;" edge="1" parent="1" source="7IlD-dD116DenXzIiaNw-30" target="7IlD-dD116DenXzIiaNw-3">
          <mxGeometry relative="1" as="geometry" />
        </mxCell>
        <mxCell id="7IlD-dD116DenXzIiaNw-90" style="edgeStyle=orthogonalEdgeStyle;rounded=0;orthogonalLoop=1;jettySize=auto;html=1;exitX=1;exitY=0.5;exitDx=0;exitDy=0;entryX=0.182;entryY=1.003;entryDx=0;entryDy=0;entryPerimeter=0;" edge="1" parent="1" source="7IlD-dD116DenXzIiaNw-29" target="7IlD-dD116DenXzIiaNw-3">
          <mxGeometry relative="1" as="geometry" />
        </mxCell>
        <mxCell id="7IlD-dD116DenXzIiaNw-91" style="edgeStyle=orthogonalEdgeStyle;rounded=0;orthogonalLoop=1;jettySize=auto;html=1;exitX=1;exitY=0.5;exitDx=0;exitDy=0;entryX=0.322;entryY=1.03;entryDx=0;entryDy=0;entryPerimeter=0;" edge="1" parent="1" source="7IlD-dD116DenXzIiaNw-28" target="7IlD-dD116DenXzIiaNw-3">
          <mxGeometry relative="1" as="geometry" />
        </mxCell>
        <mxCell id="7IlD-dD116DenXzIiaNw-92" style="edgeStyle=orthogonalEdgeStyle;rounded=0;orthogonalLoop=1;jettySize=auto;html=1;exitX=0.5;exitY=0;exitDx=0;exitDy=0;entryX=0.628;entryY=0.99;entryDx=0;entryDy=0;entryPerimeter=0;" edge="1" parent="1" source="7IlD-dD116DenXzIiaNw-23" target="7IlD-dD116DenXzIiaNw-3">
          <mxGeometry relative="1" as="geometry" />
        </mxCell>
        <mxCell id="7IlD-dD116DenXzIiaNw-95" style="edgeStyle=orthogonalEdgeStyle;rounded=0;orthogonalLoop=1;jettySize=auto;html=1;exitX=0;exitY=0.5;exitDx=0;exitDy=0;entryX=0.883;entryY=1;entryDx=0;entryDy=0;entryPerimeter=0;" edge="1" parent="1" source="7IlD-dD116DenXzIiaNw-26" target="7IlD-dD116DenXzIiaNw-3">
          <mxGeometry relative="1" as="geometry" />
        </mxCell>
        <mxCell id="7IlD-dD116DenXzIiaNw-97" style="edgeStyle=orthogonalEdgeStyle;rounded=0;orthogonalLoop=1;jettySize=auto;html=1;exitX=0.5;exitY=1;exitDx=0;exitDy=0;entryX=-0.013;entryY=0.123;entryDx=0;entryDy=0;entryPerimeter=0;" edge="1" parent="1" source="7IlD-dD116DenXzIiaNw-44" target="7IlD-dD116DenXzIiaNw-1">
          <mxGeometry relative="1" as="geometry">
            <Array as="points">
              <mxPoint x="105" y="60" />
              <mxPoint x="153" y="60" />
            </Array>
          </mxGeometry>
        </mxCell>
        <mxCell id="7IlD-dD116DenXzIiaNw-107" style="edgeStyle=orthogonalEdgeStyle;rounded=0;orthogonalLoop=1;jettySize=auto;html=1;exitX=0.5;exitY=0;exitDx=0;exitDy=0;entryX=0.06;entryY=0.977;entryDx=0;entryDy=0;entryPerimeter=0;" edge="1" parent="1" source="7IlD-dD116DenXzIiaNw-46" target="7IlD-dD116DenXzIiaNw-1">
          <mxGeometry relative="1" as="geometry" />
        </mxCell>
      </root>
    </mxGraphModel>
  </diagram>
</mxfile>
